<mxfile host="app.diagrams.net" modified="2021-08-11T06:06:09.714Z" agent="5.0 (Windows NT 10.0; Win64; x64) AppleWebKit/537.36 (KHTML, like Gecko) Chrome/92.0.4515.131 Safari/537.36" etag="iwdg4_RU0zkfqSpWWau-" version="14.9.3" type="github">
  <diagram id="JCgLeaFZmqMdPBZk2EdI" name="Page-1">
    <mxGraphModel dx="1415" dy="762" grid="1" gridSize="10" guides="1" tooltips="1" connect="1" arrows="1" fold="1" page="1" pageScale="1" pageWidth="827" pageHeight="1169" math="0" shadow="0">
      <root>
        <mxCell id="0" />
        <mxCell id="1" parent="0" />
        <mxCell id="0a2841MMsjPMxHkV8bpe-1" value="Actor" style="shape=umlActor;verticalLabelPosition=bottom;verticalAlign=top;html=1;outlineConnect=0;" vertex="1" parent="1">
          <mxGeometry x="160" y="120" width="30" height="60" as="geometry" />
        </mxCell>
        <mxCell id="0a2841MMsjPMxHkV8bpe-2" value="Actor" style="shape=umlActor;verticalLabelPosition=bottom;verticalAlign=top;html=1;outlineConnect=0;" vertex="1" parent="1">
          <mxGeometry x="280" y="120" width="30" height="60" as="geometry" />
        </mxCell>
        <mxCell id="0a2841MMsjPMxHkV8bpe-3" value="Actor" style="shape=umlActor;verticalLabelPosition=bottom;verticalAlign=top;html=1;outlineConnect=0;" vertex="1" parent="1">
          <mxGeometry x="160" y="240" width="30" height="60" as="geometry" />
        </mxCell>
        <mxCell id="0a2841MMsjPMxHkV8bpe-4" value="Actor" style="shape=umlActor;verticalLabelPosition=bottom;verticalAlign=top;html=1;outlineConnect=0;" vertex="1" parent="1">
          <mxGeometry x="280" y="240" width="30" height="60" as="geometry" />
        </mxCell>
        <mxCell id="0a2841MMsjPMxHkV8bpe-5" value="Actor" style="shape=umlActor;verticalLabelPosition=bottom;verticalAlign=top;html=1;outlineConnect=0;" vertex="1" parent="1">
          <mxGeometry x="398.5" y="120" width="30" height="60" as="geometry" />
        </mxCell>
        <mxCell id="0a2841MMsjPMxHkV8bpe-6" value="Actor" style="shape=umlActor;verticalLabelPosition=bottom;verticalAlign=top;html=1;outlineConnect=0;" vertex="1" parent="1">
          <mxGeometry x="399" y="240" width="30" height="60" as="geometry" />
        </mxCell>
        <mxCell id="0a2841MMsjPMxHkV8bpe-7" value="Actor" style="shape=umlActor;verticalLabelPosition=bottom;verticalAlign=top;html=1;outlineConnect=0;" vertex="1" parent="1">
          <mxGeometry x="520" y="120" width="30" height="60" as="geometry" />
        </mxCell>
        <mxCell id="0a2841MMsjPMxHkV8bpe-8" value="Actor" style="shape=umlActor;verticalLabelPosition=bottom;verticalAlign=top;html=1;outlineConnect=0;" vertex="1" parent="1">
          <mxGeometry x="520" y="240" width="30" height="60" as="geometry" />
        </mxCell>
        <mxCell id="0a2841MMsjPMxHkV8bpe-9" value="kakakakakaka" style="shape=callout;whiteSpace=wrap;html=1;perimeter=calloutPerimeter;" vertex="1" parent="1">
          <mxGeometry x="115" y="30" width="120" height="80" as="geometry" />
        </mxCell>
      </root>
    </mxGraphModel>
  </diagram>
</mxfile>
